# xmcd
# 
# Track frame offsets:
#     150
#     19361
#     38223
#     65799
#     90498
#     103934
#     110123
#     146986
#     161737
#     169891
# 
# Disc length: 2603
# 
# Revision: 2
# Processed by: cddbd v1.5.2PL0 Copyright (c) Steve Scherf et al.
# Submitted via: fre:ac v1.0.27
# 
DISCID=970a290a
DTITLE=Tuomi - Tightrope Walker
DYEAR=2005
DGENRE=Vocal Jazz
TTITLE0=Romance
TTITLE1=Golden Brown
TTITLE2=Tightrope Walker
TTITLE3=Carlos (Sweet)
TTITLE4=Where Cupid Got New Fire
TTITLE5=A Thing On A String (Machine Ballerina)
TTITLE6=Rid My Pain
TTITLE7=Two Of One
TTITLE8=Bela In The Desert
TTITLE9=Bridal Ballad
EXTD=YEAR: 2005
EXTT0=
EXTT1=
EXTT2=
EXTT3=
EXTT4=
EXTT5=
EXTT6=
EXTT7=
EXTT8=
EXTT9=
PLAYORDER=
